<?xml version="1.0" encoding="UTF-8"?>
<svg enable-background="new 0 0 1920 1357" version="1.1" viewBox="0 0 1920 1357" xmlns="http://www.w3.org/2000/svg">
 <path d="m483.2 224c10.29-1.11 20.56-2.39 30.87-3.33 1.8 0.63 3.1 2.15 4.59 3.29 10.86 8.94 21.62 18.02 32.56 26.87 0.12 31.09 0.02 62.17 0.05 93.26-3.45 0.48-6.9 1.24-10.39 1.09l-1.72-1.39c3.44-0.47 6.89-0.81 10.34-1.23-0.06-30.06 0.06-60.13-0.06-90.19-30.04 3.43-60.1 6.68-90.15 9.98-0.02 30.06-0.06 60.12 0.02 90.19 5.8-0.62 11.61-1.29 17.41-1.94 0.07 0.45 0.22 1.35 0.29 1.81-6.33 0.76-12.68 1.45-19.03 2.07-11.69-9.57-23.28-19.3-34.98-28.86-0.79-0.77-1.97-1.53-1.76-2.8-0.02-30.59-0.04-61.18 0.01-91.76 20.59-2.81 41.31-4.61 61.95-7.06m17.79-0.08c-25.44 2.72-50.85 5.73-76.3 8.36 11.07 9.61 22.64 18.65 33.77 28.2 29.84-3.11 59.66-6.51 89.47-9.84-9.52-7.75-18.94-15.63-28.4-23.46-1.85-1.45-3.49-3.29-5.66-4.23-4.3099-0.39-8.5999 0.61-12.88 0.97m-77.98 9.71c-0.01 29.78 0.01 59.56-0.01 89.34 11.35 9.69 23 19.03 34.43 28.63 0.13-28.62-0.02-57.24 0.08-85.86-0.24-1.45 0.48-3.48-0.95-4.44-11.2-9.2-22.32-18.51-33.55-27.67z" fill="#140708"/>
 <path d="m500.99 223.92c4.28-0.36 8.57-1.36 12.88-0.97 2.17 0.94 3.81 2.78 5.66 4.23 9.46 7.83 18.88 15.71 28.4 23.46-29.81 3.33-59.63 6.73-89.47 9.84-11.13-9.55-22.7-18.59-33.77-28.2 25.45-2.63 50.86-5.64 76.3-8.36z" fill="#E3023E"/>
 <path d="m423.01 233.63c11.23 9.16 22.35 18.47 33.55 27.67 1.43 0.96 0.71 2.99 0.95 4.44-0.1 28.62 0.05 57.24-0.08 85.86-11.43-9.6-23.08-18.94-34.43-28.63 0.02-29.78 0-59.56 0.01-89.34z" fill="#CCE08E"/>
 <path d="m459.29 262.35c30.05-3.3 60.11-6.55 90.15-9.98 0.12 30.06 0 60.13 0.06 90.19-3.45 0.42-6.9 0.76-10.34 1.23-20.83 2.07-41.62 4.57-62.44 6.81-5.8 0.65-11.61 1.32-17.41 1.94-0.08-30.07-0.04-60.13-0.02-90.19z" fill="#D3EDF8"/>
 <path d="m476.72 350.6c20.82-2.24 41.61-4.74 62.44-6.81l1.72 1.39c-3.91 0.96-7.96 0.88-11.9 1.6-17.34 1.73-34.63 3.9-51.97 5.63-0.0701-0.4599-0.2201-1.36-0.2901-1.81z" fill="#101212"/>
 <path d="m904.06 189.94c1.18-0.77 2.36-1.79 3.9-1.57 27.47 0.03 54.94-0.1 82.42 0.06 0.3 42.25 0.12 84.5 0.09 126.75 0.71 0.04 2.14 0.12 2.86 0.16 1.01 0.42 2.02 0.85 3.04 1.3-18.71 2-37.39 4.21-56.1 6.13 10.49 9.12 21.4 17.76 32.03 26.73 2.09 2.34 5.23 1.2 7.92 0.98 27.75-3.19 55.55-6.04 83.28-9.35-11.39-9.42-22.73-18.88-34.17-28.23-4.5399 0.61-9.08 1.08-13.62 1.57 0.16-0.42 0.49-1.24 0.66-1.66l0.13-0.34c4.57-0.18 9.08-1.22 13.67-1.26 12.29 9.87 24.29 20.14 36.56 30.06 0.01 31.23 0.22 62.46-0.11 93.68-6.12 0.32-12.21 1.12-18.27 1.93-6.02 0.53-12.04 1.16-18.01 2-3.0299 0.24-6.0699 0.39-9.03 1.02-2.32 0.2-4.64 0.34-6.94 0.43 1.6-0.71 3.17-1.49 4.79-2.17 15.28-1.73 30.58-3.27 45.85-5.11v-90.1c-30.08 3.35-60.18 6.56-90.23 10.08 0.17 30-0.29 60.02 0.23 90.01 0.21 0.51 0.65 1.54 0.87 2.05-1.51 0.07-2.87-0.28-3.89-1.4-11.66-9.66-23.33-19.31-34.99-28.96-0.03-9.43 0.12-18.86-0.09-28.28-27.36 0.05-54.71 0.04-82.07 0.01-0.2-54.28-0.05-108.56-0.07-162.84 16.39-11.28 32.89-22.41 49.29-33.68m-0.06 2.61c-14.74 10.23-29.74 20.1-44.39 30.44 28.17 0.36 56.36 0.06 84.55 0.16 13.96-11.05 28.27-21.67 42.18-32.78-25.8 0.05-51.6 0.01-77.39 0.02-1.96-0.25-3.4199 1.23-4.95 2.16m42.87 31.11c-1.14 0.61-1.44 1.78-1.35 2.98-0.04 31.24 0.06 62.48-0.04 93.71 14.36-1.54 28.73-3.03 43.07-4.8-0.13-41.3 0.02-82.6-0.08-123.89-13.96 10.54-27.73 21.35-41.6 32m-90.1 1.56c-0.01 53.04 0.08 106.09-0.04 159.14 26.75 0.24 53.5-0.01 80.25 0.12 0.05-21.03 0.04-42.07 0.01-63.1 2.15-0.24 4.3-0.46 6.47-0.67 0.08-31.83 0.02-63.67 0.03-95.51-28.9-0.02-57.81-0.05-86.72 0.02m82.02 99.06c-0.01 29.82-0.03 59.65 0.0099 89.47 11.34 9.55 22.95 18.78 34.17 28.47 0.1-29.89 0-59.78 0.04-89.68-11.39-9.44-22.74-18.94-34.22-28.26z" fill="#090405"/>
 <path d="m904 192.55c1.53-0.93 2.99-2.41 4.95-2.16 25.79-0.01 51.59 0.03 77.39-0.02-13.91 11.11-28.22 21.73-42.18 32.78-28.19-0.1-56.38 0.2-84.55-0.16 14.65-10.34 29.65-20.21 44.39-30.44z" fill="#FCE9F1"/>
 <path d="m946.87 223.66c13.87-10.65 27.64-21.46 41.6-32 0.1 41.29-0.05 82.59 0.08 123.89-14.34 1.77-28.71 3.26-43.07 4.8 0.1-31.23 0-62.47 0.04-93.71-0.09-1.2 0.21-2.37 1.35-2.98z" fill="#00A0E9"/>
 <path d="m856.77 225.22c28.91-0.07 57.82-0.04 86.72-0.02-0.01 31.84 0.05 63.68-0.03 95.51-2.17 0.21-4.32 0.43-6.47 0.67 0.03 21.03 0.04 42.07-0.01 63.1-26.75-0.13-53.5 0.12-80.25-0.12 0.12-53.05 0.0299-106.1 0.04-159.14z" fill="#C6DF95"/>
 <path d="m992.95 315.19c7.8-0.87 15.57-2.05 23.42-2.38-0.17 0.42-0.5 1.24-0.66 1.66-6.44 0.82-12.9 1.48-19.34 2.17-1.02-0.45-2.03-0.88-3.04-1.3l-0.38-0.15z" fill="#141819"/>
 <path d="m1015.7 314.47c4.54-0.49 9.0801-0.96 13.62-1.57 11.44 9.35 22.78 18.81 34.17 28.23-27.73 3.31-55.53 6.16-83.28 9.35-2.69 0.22-5.83 1.36-7.92-0.98-10.63-8.97-21.54-17.61-32.03-26.73 18.71-1.92 37.39-4.13 56.1-6.13 6.4399-0.6899 12.9-1.3499 19.34-2.17z" fill="#BBE2EC"/>
 <path d="m938.79 324.28c11.48 9.32 22.83 18.82 34.22 28.26-0.04 29.9 0.06 59.79-0.04 89.68-11.22-9.69-22.83-18.92-34.17-28.47-0.0401-29.82-0.02-59.65-0.01-89.47z" fill="#EEEA38"/>
 <path d="m974.78 353.03c30.05-3.52 60.15-6.73 90.23-10.08v90.1c-15.27 1.84-30.57 3.38-45.85 5.11-14.73 1.56-29.44 3.24-44.15 4.88-0.5201-29.99-0.06-60.01-0.23-90.01z" fill="#E62789"/>
 <path d="m131.4 388.51c29.09-11.43 58.22-22.77 87.36-34.1 14.27 6.66 28.66 13.08 42.92 19.76 3.45 10.32 5.72 21.06 8.73 31.54 4.91 18.33 9.78 36.67 14.75 54.98 0.18 1.24 1 2.52 0.48 3.78-4.36 2.05-9.01 3.45-13.43 5.3701-12.02 4.65-24.01 9.35-36.01 14.04-9.1 3.52-18.17 7.1-27.28 10.62-3.33 1.28-6.59 2.74-9.99 3.84-3.51-1.07-6.66-3.09-10.07-4.4301-2.98-1.36-5.94-2.74-8.9-4.1-1.38-0.63-2.75-1.25-4.12-1.86-3.66-1.66-7.28-3.42-10.96-5.01-3.08-1.44-6.14-2.9-9.28-4.18-8.23-30.03-16.18-60.15-24.2-90.25m84.33-31c-23.01 9-46.03 17.96-69.04 26.95-3.86 1.56-7.87 2.79-11.52 4.84 12.91 5.83 25.77 11.78 38.64 17.67 1.06 0.68 2.24 0.2 3.3-0.19 26.09-10.19 52.17-20.4 78.28-30.53 1.04-0.47 2-1.08 2.95-1.71-12.43-5.57-24.79-11.32-37.16-16.99-1.72-0.9201-3.71-0.7801-5.45-0.04m-39.57 51.62c7.68 29.06 15.62 58.05 23.2 87.13 16.07-6.2 32.08-12.54 48.15-18.76 12.08-4.54 23.94-9.74 36.18-13.82-0.61-5.12-2.47-9.96-3.64-14.96-6.48-24.2-12.96-48.4-19.42-72.61-28.12 11.1-56.32 22-84.47 33.02m-42.23-18.41c7.22 28.01 14.95 55.9 22.31 83.87 0.54 4.24 5.61 4.42 8.61 6.29 3.68 1.64 7.32 3.36 10.98 5.05 4.36 1.94 8.67 3.99 13.02 5.96 2.82 1.3 5.64 2.61 8.54 3.76-7.62-28.77-15.43-57.49-23-86.28-13.4-6.3899-26.99-12.38-40.46-18.65z"/>
 <path d="m215.73 357.51c1.74-0.74 3.73-0.88 5.45 0.04 12.37 5.67 24.73 11.42 37.16 16.99-0.95 0.63-1.91 1.24-2.95 1.71-26.11 10.13-52.19 20.34-78.28 30.53-1.06 0.39-2.24 0.87-3.3 0.19-12.87-5.89-25.73-11.84-38.64-17.67 3.65-2.05 7.66-3.28 11.52-4.84 23.01-8.9901 46.03-17.95 69.04-26.95z" fill="#851F83"/>
 <path d="m176.16 409.13c28.15-11.02 56.35-21.92 84.47-33.02 6.46 24.21 12.94 48.41 19.42 72.61 1.17 5 3.03 9.84 3.64 14.96-12.24 4.08-24.1 9.28-36.18 13.82-16.07 6.22-32.08 12.56-48.15 18.76-7.58-29.08-15.52-58.07-23.2-87.13z" fill="#E8969E"/>
 <path d="m133.93 390.72c13.47 6.27 27.06 12.26 40.46 18.65 7.57 28.79 15.38 57.51 23 86.28-2.9-1.15-5.72-2.46-8.54-3.76-4.35-1.97-8.66-4.02-13.02-5.96-3.66-1.69-7.3-3.41-10.98-5.05-3-1.87-8.07-2.05-8.61-6.29-7.36-27.97-15.09-55.86-22.31-83.87z" fill="#FCE9F1"/>
 <path d="m975.01 443.04c14.71-1.64 29.42-3.32 44.15-4.88-1.62 0.68-3.19 1.46-4.79 2.17-12.7 2.1-25.76 2.62-38.49 4.76-0.2199-0.5101-0.6599-1.5401-0.87-2.05z" fill="#140610"/>
 <path d="m407.11 450.84c11.84-14.49 23.56-29.08 35.45-43.53 14.4 1.38 28.95 0.39 43.38 1.52 36.38 0.6 72.72 2.01 109.09 2.63 3.33 0.11 6.63 0.58 9.97 0.55-0.44 27.9-1.46 55.79-2.07 83.68-0.57 1.32-1.49 2.45-2.31 3.62-11.53 15.87-22.84 31.9-34.44 47.72-0.81-0.07-2.42-0.22-3.23-0.29-13.59-1.05-27.3-0.08-40.9-1.29-10.67-0.21-21.34-0.36-32.01-0.52-10-0.87-20.05-0.62-30.07-0.86-18.72-1.35-37.55-0.29-56.26-1.83 0.45-28.47 1.48-56.94 2.1-85.4 0.2699-2.0199-0.3101-4.43 1.2999-6m36.18-40.94c-11.44 13.93-22.8 27.93-34.11 41.97 13.27 0.27 26.56 0.23 39.81 1.01 33.76 0.54 67.49 1.82 101.24 2.49l-0.9399 2.26c-11.09-0.59-22.2-0.46-33.3-0.74-6.6299-0.53-13.29-0.56-19.93-0.73-18.05-0.04-36.06-1.29-54.1-1.2-11.28-0.67-22.59-0.83-33.88-0.96-0.77 28.75-1.74 57.49-2.19 86.24 15.69 0.65 31.39 0.97 47.09 1.25 15.64 0.92 31.33 0.48 46.96 1.44 21.7 0.22 43.37 1.19 65.07 1.54 0.29-28.81 1.57-57.6 2.05-86.4-2.64-0.53-6.58 0.74-7.75-2.45 3.25-0.17 7.76 1.79 9.91-1.59 10.75-13.36 21.66-26.58 32.38-39.95-15.81-1.24-31.71-0.56-47.53-1.55-36.94-0.65-73.84-2.18-110.78-2.63m127.48 45.65c-2.57 2.71-1.46 6.79-1.76 10.17-0.62 25.49-1.32 50.98-2 76.46 10.91-14.99 21.65-30.1 32.54-45.1 0.52-0.71 0.97-1.45 1.35-2.23 0.65-26.33 1.25-52.67 2.12-78.99-10.73 13.24-21.47 26.48-32.25 39.69z" fill="#1C1209"/>
 <path d="m443.29 409.9c36.94 0.45 73.84 1.98 110.78 2.63 15.82 0.99 31.72 0.31 47.53 1.55-10.72 13.37-21.63 26.59-32.38 39.95-2.15 3.3799-6.66 1.42-9.91 1.59-3.03-0.2-6.06-0.23-9.08-0.25-33.75-0.67-67.48-1.95-101.24-2.49-13.25-0.78-26.54-0.74-39.81-1.01 11.31-14.04 22.67-28.04 34.11-41.97z" fill="#FFF100"/>
 <path d="m570.77 455.55c10.78-13.21 21.52-26.45 32.25-39.69-0.87 26.32-1.47 52.66-2.12 78.99-0.38 0.78-0.83 1.52-1.35 2.23-10.89 15-21.63 30.11-32.54 45.1 0.68-25.48 1.38-50.97 2-76.46 0.2999-3.3799-0.81-7.4599 1.76-10.17z" fill="#FFFBC4"/>
 <path d="m408.08 454c11.29 0.13 22.6 0.29 33.88 0.96 18.04-0.09 36.05 1.16 54.1 1.2 6.64 0.17 13.3 0.2 19.93 0.73 11.1 0.28 22.21 0.15 33.3 0.74 5.91 0.49 11.84 0.39 17.77 0.44-0.48 28.8-1.76 57.59-2.05 86.4-21.7-0.35-43.37-1.3199-65.07-1.54-15.63-0.96-31.32-0.52-46.96-1.44-15.7-0.28-31.4-0.6-47.09-1.25 0.45-28.75 1.42-57.49 2.19-86.24z" fill="#C36333"/>
 <path d="m550.23 455.37c3.02 0.02 6.05 0.05 9.08 0.25 1.17 3.19 5.11 1.92 7.75 2.45-5.93-0.05-11.86 0.05-17.77-0.44l0.94-2.26z" fill="#2B120E"/>
 <path d="m1597.6 213.7c-0.59-1.39 0.5601-2.5 1.7401-1.29 83.93 66.09 167.82 132.23 251.74 198.33 2.87 2.43 6.09 4.46 8.74 7.14 2.48 14.37 4.6699 28.82 6.76 43.25-7.37 1.87-15.07 2.18-22.52 3.68-15.66 2.29-31.33 4.51-46.95 7.03-15.48 1.95-30.85 4.8799-46.34 6.59-1.61-0.2-3.2-0.47-4.77-0.66 39.69-5.87 79.38-11.73 119.04-17.76-2.3201-13.64-4.27-27.34-6.48-41-42.45 6.48-84.94 12.65-127.4 19.04-39.73 5.8-79.4 11.99-119.15 17.6 7.46 13.03 15.43 25.76 23.03 38.72 2.1899-0.34 4.41-0.72 6.62-1.08 0.41 0.36 1.22 1.07 1.62 1.43-2.9301 0.39-5.89 0.6201-8.71 1.51-4.99-7.43-9.27-15.31-13.98-22.92-3.65-6.33-7.75-12.4-11.19-18.83-3.9799-80.26-7.8499-160.52-11.8-240.78m1.66 0.67c3.62 79.77 7.8101 159.52 11.56 239.28 35.74-4.84 71.39-10.42 107.1-15.55 46.42-6.76 92.8-13.75 139.24-20.37-26.71-21.4-53.75-42.41-80.59-63.66-59.1-46.56-118.21-93.13-177.31-139.7z"/>
 <path d="m1599.2 214.37c59.1 46.57 118.21 93.14 177.31 139.7 26.84 21.25 53.88 42.26 80.59 63.66-46.44 6.62-92.82 13.61-139.24 20.37-35.71 5.13-71.36 10.71-107.1 15.55-3.7501-79.76-7.9401-159.51-11.56-239.28z" fill="#00A0DE"/>
 <path d="m1731.1 438.05c42.46-6.39 84.95-12.56 127.4-19.04 2.21 13.66 4.1599 27.36 6.48 41-39.66 6.03-79.35 11.89-119.04 17.76-34.8 5.06-69.57 10.3-104.34 15.52-2.21 0.36-4.4301 0.7401-6.62 1.08-7.6-12.96-15.57-25.69-23.03-38.72 39.75-5.6099 79.42-11.8 119.15-17.6z" fill="#BBE2EC"/>
 <path d="m1641.6 493.29c34.77-5.22 69.54-10.46 104.34-15.52 1.5701 0.19 3.16 0.46 4.77 0.66-2.2 0.65-4.47 0.96-6.6899 1.4-2.3501 0.25-4.6901 0.52-6.9801 1-4.33 0.56-8.6499 1.19-12.94 1.94-11.36 1.6-22.72 3.26-34.04 5.08-6.6599 0.88-13.31 1.86-19.93 2.96-6.4501 0.73-12.81 2.09-19.26 2.67l-0.59 0.43c-2.38 0.17-4.7401 0.41-7.0601 0.81-0.4001-0.36-1.2101-1.0699-1.6201-1.43z" fill="#191C1C"/>
 <path d="m702.97 367.12c23.02-2.54 46.05-5.16 69.09-7.63 12.57 9.72 24.54 20.26 36.93 30.24 0.04 15.97 0 31.94 0.02 47.92 2.43-2.39 5.81-1.19 8.79-0.88 15.03 1.68 30.08 3.19 45.1 5.05 13.87 1.31 27.71 3 41.56 4.57 0.1 30.97 0.18 61.96-0.04 92.93-10.39 9.54-21.75 18.08-32.47 27.29-2.24 1.68-4.66 4.79-7.72 2.83-2.48-0.92-4.95-1.85-7.5099-2.46 3.2599 0.32 6.52 0.65 9.7599 1.15 0.02-30.03-0.03-60.05 0.03-90.08-10.46-1.45-20.99-2.35-31.47-3.63-8.69-0.77-17.31-2.2-26.02-2.59-0.02 3.74-0.01 7.48-0.01 11.23-10.83 1.58-21.79 2.22-32.6 3.86-0.37 23.69 0.04 47.41-0.2 71.11 17.71 2.0699 35.46 3.86 53.16 6 0.93 0.67 1.85 1.4 2.76 2.1299-18.86-2.11-37.73-4.2599-56.61-6.21-0.24-0.23-0.74-0.68-0.99-0.91-0.09-24-0.05-48-0.02-72-4.86 0.21-9.64 1.27-14.51 1.36 0.14 0.35 0.41 1.06 0.55 1.42 2.4901 1.94 4.88 4.04 7.41 5.95 0.05 31.12 0.13 62.24-0.03 93.35-0.58-0.56-1.15-1.11-1.71-1.65-0.02-30.05 0.03-60.09-0.02-90.14-30.03 3.58-60.12 6.7-90.18 10.08-0.02 30.01-0.01 60.02-0.01 90.03 2.25-0.17 4.51-0.34 6.78-0.51 0.5099 0 1.54-0.01 2.05-0.01-0.47 0.39-1.42 1.16-1.9 1.55l-0.61 0.4901c-2.58 0.12-5.14 0.3-7.7 0.47-9.72-8.06-19.46-16.1-29.17-24.16-2.46-2.15-5.26-3.93-7.38-6.43-0.11-30.71-0.13-61.44 0.01-92.15 0.23-0.26 0.7-0.79 0.93-1.06 16.23-1.69 32.48-3.4 48.67-5.43-2.81-2.48-5.87-4.68-8.54-7.31 0.28-30.95-0.18-61.92 0.23-92.86 4.61-1.33 9.67-1.12 14.44-1.98l1.69-0.06c0.04 0.67 0.09 1.36 0.11 2.05-4.42 0.11-8.81 0.7-13.18 1.24 11.2 9.45 22.65 18.6 33.8 28.12 29.88-2.96 59.67-6.78 89.56-9.65-11.23-9.64-22.81-18.86-34.12-28.4-23.25 2.65-46.53 5.09-69.77 7.77-1.51 0.4-2.89-0.45-4.11-1.16 0.9499-1.66 3.55-0.34 5.17-0.84m-21.96 5.5801c0 29.76 0.01 59.53 0 89.3 11.22 9.71 22.9 18.87 34.18 28.53-0.07-29.9 0.29-59.84-0.18-89.72-11.29-9.4101-22.62-18.8-34-28.11m36.13 28.57c-0.3 30.03-0.05 60.06-0.13 90.09 29.65-3.23 59.31-6.44 88.93-9.88 2-0.03 0.98-2.55 1.29-3.76-0.12-28.8 0.03-57.6-0.08-86.4-29.99 3.4401-59.99 6.81-90.01 9.95m91.87 39.32c0.04 9.75-0.1 19.5 0.09 29.24 19.37 1.73 38.69 4.09 58 6.33 11.18-9.66 22.96-18.63 33.96-28.49-29.79-2.91-59.52-6.51-89.28-9.71-0.9399 0.87-1.85 1.75-2.77 2.63m61.3 35.31c-0.82 0.81-2.25 1.49-2.02 2.87-0.05 29.5 0.0099 59-0.03 88.49 11.37-9.68 22.98-19.07 34.46-28.61 0.07-29.85 0.0099-59.71 0.03-89.56-10.83 8.92-21.61 17.9-32.44 26.81m-228.83 1.4099c11.03 9.6 22.62 18.57 33.67 28.17 29.71-3 59.36-6.64 89.07-9.68-2.18-2.57-4.89-4.6-7.44-6.77-13.67 1.31-27.3 3.06-40.97 4.3799-8.63-7.11-17.29-14.18-25.81-21.42-16.19 1.7001-32.34 3.6002-48.52 5.3201m-1.6399 1.44c-0.03 29.68-0.17 59.38 0.07 89.05 2.15 2.58 5 4.44 7.53 6.63 8.9 7.41 17.87 14.73 26.74 22.18 0.12-28.96-0.01-57.92 0.07-86.88 0.02-1.41-0.05-2.99-1.39-3.79-11.02-9.0499-21.88-18.29-33.02-27.19z" fill="#0B0C0B"/>
 <path d="m701.91 369.12c23.24-2.68 46.52-5.12 69.77-7.77 11.31 9.54 22.89 18.76 34.12 28.4-29.89 2.87-59.68 6.69-89.56 9.65-11.15-9.52-22.6-18.67-33.8-28.12 4.37-0.54 8.76-1.13 13.18-1.24-0.02-0.69-0.07-1.38-0.11-2.05l-1.69 0.06c1.32-0.35 2.65-0.38 3.98-0.09 1.22 0.7101 2.6 1.56 4.11 1.16z" fill="#BBE2EC"/>
 <path d="m681.01 372.7c11.38 9.31 22.71 18.7 34 28.11 0.47 29.88 0.11 59.82 0.18 89.72-11.28-9.66-22.96-18.82-34.18-28.53 0.0101-29.77 0-59.54 0-89.3z" fill="#EEEA38"/>
 <path d="m717.14 401.27c30.02-3.14 60.02-6.51 90.01-9.95 0.11 28.8-0.04 57.6 0.08 86.4-0.31 1.21 0.71 3.73-1.29 3.76-29.62 3.44-59.28 6.65-88.93 9.88 0.08-30.03-0.17-60.06 0.13-90.09z" fill="#2E4EA0"/>
 <path d="m809.01 440.59c0.92-0.88 1.83-1.76 2.77-2.63 29.76 3.2 59.49 6.8 89.28 9.71-11 9.86-22.78 18.83-33.96 28.49-19.31-2.24-38.63-4.6-58-6.33-0.1899-9.7399-0.05-19.49-0.09-29.24z" fill="#EE93AE"/>
 <path d="m870.31 475.9c10.83-8.91 21.61-17.89 32.44-26.81-0.02 29.85 0.04 59.71-0.03 89.56-11.48 9.54-23.09 18.93-34.46 28.61 0.04-29.49-0.02-58.99 0.03-88.49-0.23-1.38 1.2-2.06 2.02-2.87z" fill="#FBD6B6"/>
 <path d="m809.02 471.83c8.71 0.39 17.33 1.82 26.02 2.59 10.48 1.28 21.01 2.18 31.47 3.63-0.06 30.03-0.01 60.05-0.03 90.08-3.24-0.5-6.5-0.83-9.7599-1.15-9.1-1.1-18.22-2.12-27.35-2.95-17.7-2.14-35.45-3.9301-53.16-6 0.24-23.7-0.17-47.42 0.2-71.11 10.81-1.64 21.77-2.28 32.6-3.86-2e-4 -3.7501-0.0102-7.49 0.0099-11.23z" fill="#F4F29B"/>
 <path d="m641.48 477.31c16.18-1.72 32.33-3.62 48.52-5.32 8.52 7.24 17.18 14.31 25.81 21.42 13.67-1.3199 27.3-3.0699 40.97-4.3799 2.55 2.17 5.26 4.2 7.44 6.77-29.71 3.04-59.36 6.68-89.07 9.68-11.05-9.6001-22.64-18.57-33.67-28.17z" fill="#A6D9E2"/>
 <path d="m639.84 478.75c11.14 8.9 22 18.14 33.02 27.19 1.34 0.8 1.41 2.38 1.39 3.79-0.08 28.96 0.05 57.92-0.07 86.88-8.87-7.45-17.84-14.77-26.74-22.18-2.53-2.19-5.38-4.05-7.53-6.63-0.2401-29.67-0.1001-59.37-0.07-89.05z" fill="#E60012"/>
 <path d="m676.02 507.41c30.06-3.3799 60.15-6.5 90.18-10.08 0.05 30.05 0 60.09 0.02 90.14-27.79 3.34-55.66 6.01-83.43 9.46-2.27 0.17-4.53 0.34-6.78 0.51-1e-4 -30.01-0.0101-60.02 0.01-90.03z" fill="#F8C8C9"/>
 <path d="m829.37 564.03c9.13 0.83 18.25 1.85 27.35 2.95 2.56 0.61 5.03 1.54 7.5099 2.46-10.74-0.56-21.39-2.25-32.1-3.28-0.9098-0.7301-1.8299-1.46-2.7599-2.13z" fill="#141410"/>
 <path d="m682.79 596.93c27.77-3.45 55.64-6.12 83.43-9.46 0.56 0.54 1.13 1.09 1.71 1.65l0.08 0.08c-7.36 0.87-14.7 1.92-22.1 2.29l-0.67 0.49c-14.81 1.04-29.5 3.49-44.31 4.52l-0.67 0.48c-5.81 0.07-11.51 1.41-17.32 1.49 0.48-0.39 1.43-1.16 1.9-1.55-0.51 0-1.5401 0.01-2.05 0.01z" fill="#0F0F0F"/>
 <path d="m1331.3 164.3c20.56-5.17 40.82-11.55 61.39-16.67 63.48 81.34 127.13 162.55 190.62 243.88-0.0601 107.82-0.03 215.63-0.02 323.45-14.31 11.39-28.97 22.34-43.35 33.65-1.17 0.82-2.28 2.01-3.8401 1.74-42.81-0.04-85.63 0.1-128.45-0.0699-0.03-20.51-7.92-41.15-22.64-55.59-7.2999-7.71-16.35-13.71-26.16-17.71-6.61-2.85-13.68-4.3-20.74-5.44-8.0499-0.68-16.16-0.42-24.09 1.12-1.37 0.36-2.78 0.63-4.12 0.96-3.04 0.88-6.05 1.84-9.01 2.93-18.41 7.32-33.87 21.82-42.23 39.79-5.04 10.55-7.33 22.25-7.47 33.9-46.59 0.24-93.19 0.09-139.78 0.07-0.3101-106.85-0.01-213.71-0.15-320.57 0.11-1.62-0.39-3.55 0.91-4.82 73.08-86.84 146.09-173.75 219.13-260.62m3.45 1.36c67.37 86.52 135.14 172.73 202.51 259.25 14.66-10.85 28.91-22.27 43.44-33.29-62.93-80.65-126-161.18-188.99-241.78-18.98 5.28-37.98 10.52-56.96 15.82m-219.98 259.59c140.07 0.04 280.14 0.09 420.21-0.02-67.76-86.09-135.33-172.33-203.07-258.44-72.3 86.22-144.89 172.2-217.14 258.46m423.65 1.86c-0.29 52.87-0.13 105.76-0.08 158.64 14.27-11.04 28.49-22.14 42.87-33.03 0.1499-52.97 0.0499-105.95 0.0499-158.92-14.22 11.18-28.83 21.9-42.84 33.31m-425.15 159.91c28.91 0.11 57.82 0.01 86.72 0.05 0.0701-53.26 0.05-106.52 0.02-159.77-28.88-0.04-57.75 0.09-86.63-0.07-0.25 53.26-0.03 106.53-0.11 159.79m88.79-159.73c-0.0601 52.8-0.02 105.6-0.03 158.4 14.37-10.93 28.52-22.15 42.95-33 0.1001-41.8 0.05-83.6 0.02-125.4-14.31 0.0099-28.63 0.0099-42.94 0m45-0.0101c-0.0701 41.64-0.01 83.28-0.03 124.92 66.84-0.01 133.69 0 200.53-0.01-0.0801-41.63 0-83.27-0.04-124.91-66.82 0.0101-133.64 0.02-200.46 0m202.55 159.82c28.88-0.06 57.77 0 86.66-0.03 0.02-53.26 0.01-106.52 0-159.77-28.9 0-57.8 0.01-86.7-0.01-0.04 53.27-0.1199 106.54 0.04 159.81m-228.04-13.79c-5.7001 4.58-11.82 8.67-17.19 13.66 81.04 0.21 162.08 0.04 243.12 0.09 0.0701-10.95-0.01-21.9 0.05-32.85-58.83-0.03-117.66 0-176.49-0.01-8.3 0.2-16.65-0.4-24.92 0.27-8.3299 6.07-16.34 12.61-24.57 18.84m318.04 14.04c-1.2999 0.67-1.51 2.09-1.36 3.41 0.1 52.07-0.0599 104.15 0.0801 156.22 14.45-10.85 28.7-21.98 42.96-33.08-0.02-52.86 0.01-105.71-0.02-158.57-14 10.53-27.73 21.42-41.66 32.02m-426.35 1.7401c0.04 53.09 0.02 106.18 0.01 159.26 45.16-0.0699 90.33 0.14 135.49-0.1 1.22-3.21 0.6-7.08 1.36-10.53 3.65-27.46 22.88-52.02 48.48-62.47 18.14-7.57 39.1-8.16 57.61-1.51 15.74 5.45 29.52 16.15 39.04 29.79 9.15 13.06 14.06 28.9 14.34 44.82 42.25-0.0699 84.51 0.16 126.76-0.12-0.23-53.06 0.14-106.14-0.1899-159.2-140.97 0.1301-281.94 0.0101-422.9 0.0602z"/>
 <path d="m1334.7 165.66c18.98-5.3 37.98-10.54 56.96-15.82 62.99 80.6 126.06 161.13 188.99 241.78-14.53 11.02-28.78 22.44-43.44 33.29-67.37-86.52-135.14-172.73-202.51-259.25z" fill="#FFE800"/>
 <path d="m1114.8 425.25c72.25-86.26 144.84-172.24 217.14-258.46 67.74 86.11 135.31 172.35 203.07 258.44-140.07 0.11-280.14 0.0601-420.21 0.02z" fill="#E83862"/>
 <path d="m1538.4 427.11c14.01-11.41 28.62-22.13 42.84-33.31 0 52.97 0.1 105.95-0.0499 158.92-14.38 10.89-28.6 21.99-42.87 33.03-0.0501-52.88-0.2101-105.77 0.0799-158.64z" fill="#F8C898"/>
 <path d="m1113.2 587.02c0.08-53.26-0.14-106.53 0.11-159.79 28.88 0.16 57.75 0.03 86.63 0.07 0.03 53.25 0.05 106.51-0.02 159.77-28.9-0.04-57.81 0.0599-86.72-0.05z" fill="#AA529B"/>
 <path d="m1202 427.29c14.31 0.01 28.63 0.01 42.94 0 0.03 41.8 0.0801 83.6-0.02 125.4-14.43 10.85-28.58 22.07-42.95 33 0.0101-52.8-0.0299-105.6 0.0301-158.4z" fill="#D29CC5"/>
 <path d="m1449.6 587.1c-0.1599-53.27-0.08-106.54-0.0399-159.81 28.9 0.02 57.8 0.01 86.7 0.01 0.01 53.25 0.02 106.51 0 159.77-28.89 0.03-57.78-0.03-86.66 0.03z" fill="#EC6517"/>
 <path d="m1221.6 573.31c8.23-6.23 16.24-12.77 24.57-18.84 8.27-0.67 16.62-0.0699 24.92-0.27 58.83 0.01 117.66-0.02 176.49 0.01-0.0601 10.95 0.02 21.9-0.05 32.85-81.04-0.05-162.08 0.12-243.12-0.09 5.3701-4.99 11.49-9.0799 17.19-13.66z" fill="#3CB034"/>
 <path d="m1539.6 587.35c13.93-10.6 27.66-21.49 41.66-32.02 0.03 52.86 0 105.71 0.02 158.57-14.26 11.1-28.51 22.23-42.96 33.08-0.14-52.07 0.0199-104.15-0.0801-156.22-0.1499-1.32 0.0601-2.7399 1.3601-3.41z" fill="#CCE08E"/>
 <path d="m1113.2 589.09c140.96-0.05 281.93 0.0699 422.9-0.06 0.33 53.06-0.04 106.14 0.1899 159.2-42.25 0.28-84.51 0.05-126.76 0.12-0.28-15.92-5.1901-31.76-14.34-44.82-9.52-13.64-23.3-24.34-39.04-29.79-18.51-6.65-39.47-6.06-57.61 1.51-25.6 10.45-44.83 35.01-48.48 62.47-0.76 3.45-0.14 7.32-1.36 10.53-45.16 0.24-90.33 0.03-135.49 0.1 0.0101-53.08 0.0301-106.17-0.0099-159.26z" fill="#2862AE"/>
 <path d="m504.71 578.42c1.64-1.87 4.19-0.8 6.29-0.62 26.78 2.93 53.55 5.98 80.35 8.83 2.54 0.51 5.14 0.64 7.73 0.76l-0.09 0.03c-0.63 0.22-1.89 0.67-2.52 0.89 0.04 0.75 0.11 2.26 0.14 3.02-11.33 9.06-22.38 18.48-33.6 27.68l-0.29-1.81c2.2-2.71 5.14-4.66 7.78-6.91 8.45-7.04 16.97-14 25.4-21.07-29.65-3.67-59.42-6.46-89.08-10.07-10.74 8.98-21.44 18.03-32.41 26.72-0.31 0.11-0.92 0.35-1.22 0.47l-0.3-1.45c10.49-8.94 21.29-17.55 31.82-26.47z" fill="#0E0D0D"/>
 <path d="m474.41 605.87c10.97-8.69 21.67-17.74 32.41-26.72 29.66 3.61 59.43 6.4 89.08 10.07-8.43 7.07-16.95 14.03-25.4 21.07-2.64 2.25-5.58 4.2-7.78 6.91-29.26-2.59-58.41-6.53-87.66-9.36-0.23-0.6699-0.44-1.3198-0.65-1.9699z" fill="#EE93AE"/>
 <path d="m596.47 588.31c0.63-0.22 1.89-0.67 2.52-0.89 0.63 31.13 0.09 62.31 0.27 93.45-11.95 10.25-24.34 19.98-36.25 30.27-1.72-0.79-3.43-1.57-5.2-2.18 0.92 0.12 2.77 0.38 3.7 0.5099 0.04-30.06-0.06-60.13 0.05-90.19-28.6-3.39-57.24-6.41-85.85-9.58l-0.65-1.86c29.25 2.83 58.4 6.77 87.66 9.36l0.29 1.81c0.58 29.78 0.09 59.6 0.24 89.39 11.4-9.4901 22.85-18.91 34.26-28.39 0-29.79 0.01-59.57-0.01-89.36-0.22 0.17-0.67 0.5099-0.89 0.68-0.0301-0.7599-0.1002-2.27-0.1401-3.02z"/>
 <path d="m596.61 591.33c0.22-0.17 0.67-0.51 0.89-0.68 0.02 29.79 0.01 59.57 0.01 89.36-11.41 9.48-22.86 18.9-34.26 28.39-0.15-29.79 0.34-59.61-0.24-89.39 11.22-9.2001 22.27-18.62 33.6-27.68z" fill="#F2E9B5"/>
 <path d="m469.48 607.64c1.13-0.92 2.27-1.84 3.41-2.75l0.3 1.45c0.69 1.0699 1.41 2.1299 2.15 3.2-1.02-0.07-3.06-0.22-4.08-0.29 0.03 30 0.03 59.99 0 89.99 28.83 3.4 57.72 6.31 86.55 9.72 1.77 0.61 3.48 1.39 5.2 2.18-12.73-0.86-25.39-2.73-38.1-3.97-18.46-2.1-36.93-4.08-55.39-6.13-0.09-31.13 0-62.26-0.04-93.4z" fill="#0C0C0C"/>
 <path d="m473.19 606.34c0.3-0.1201 0.91-0.36 1.22-0.47 0.21 0.65 0.42 1.3 0.65 1.97l0.65 1.86c28.61 3.17 57.25 6.19 85.85 9.58-0.11 30.06-0.01 60.13-0.05 90.19-0.93-0.1299-2.78-0.39-3.7-0.5099-28.83-3.41-57.72-6.32-86.55-9.72 0.03-30 0.03-59.99 0-89.99 1.02 0.07 3.06 0.22 4.08 0.29-0.7399-1.0701-1.4599-2.1301-2.1499-3.2z" fill="#AF3E92"/>
 <path d="m1655 614.7c12.17-10.27 24.57-20.28 36.76-30.53 4.46 0.57 8.9301 1.11 13.43 1.48 2.96 0.6 5.99 0.64 9 1 23.5 2.71 47.05 5.2599 70.58 7.79 0.58 31.1 0.08 62.24 0.25 93.35-12.15 10.2-24.54 20.12-36.59 30.44-28.81-3.12-57.62-6.23-86.4-9.59-2.29-0.26-4.5601-0.42-6.8201-0.57-0.46-31.11-0.03-62.25-0.21-93.37m32.51-24.5c-9.5599 8.07-19.39 15.82-28.83 24.03 29.49 3.76 59.13 6.37 88.62 10.13 11.48-9.24 22.81-18.69 34.1-28.18-29.47-3.64-59.06-6.56-88.56-9.95-2.0399 0.9299-3.6199 2.5699-5.3299 3.97m61.35 35.52c-0.0599 29.78-0.09 59.56 0.02 89.33 11.59-9.21 22.87-18.82 34.3-28.24 0.0599-29.78 0.0599-59.55 0-89.33-11.58 9.24-22.85 18.87-34.32 28.24m-92.05-9.6c0 30.01 0.01 60.03-0.01 90.05 30.04 3.66 60.18 6.54 90.22 10.18v-90.12c-30.04-3.5899-60.15-6.6399-90.21-10.11z" fill="#0E0C03"/>
 <path d="m1687.5 590.2c1.71-1.4 3.29-3.04 5.33-3.97 29.5 3.39 59.09 6.31 88.56 9.95-11.29 9.49-22.62 18.94-34.1 28.18-29.49-3.76-59.13-6.37-88.62-10.13 9.4399-8.21 19.27-15.96 28.83-24.03z" fill="#F39800"/>
 <path d="m1748.8 625.72c11.47-9.37 22.74-19 34.32-28.24 0.0599 29.78 0.0599 59.55 0 89.33-11.43 9.42-22.71 19.03-34.3 28.24-0.1101-29.77-0.0801-59.55-0.0201-89.33z" fill="#EA5404"/>
 <path d="m1656.8 616.12c30.06 3.47 60.17 6.52 90.21 10.11v90.12c-30.04-3.64-60.18-6.52-90.22-10.18 0.0201-30.02 0.01-60.04 0.01-90.05z" fill="#EEEA38"/>
 <path d="m895.28 554.92c1.1-0.74 2.57-1.34 3.79-0.43 43.65 24.75 87.32 49.5 130.99 74.22-3.66 20.34-7.4701 40.66-11.27 60.98-13.86 13.17-27.39 26.68-40.97 40.14-4.13-1.03-7.44-3.86-11.15-5.79-31.2-18.31-62.54-36.4-93.65-54.85-0.13 23.63 0.22 47.28-0.18 70.91-31.08 3.16-62.1 6.86-93.16 10.17-10.58-9.16-21.53-17.9-32.26-26.87-1.67-1.63-4.7599-2.79-4.2-5.62 0.09-30.44-0.08-60.88 0.09-91.31 23.52-2.5 47.04-5.0699 70.53-7.81 6.03-0.53 12.04-1.19 18.04-1.96 1.47-0.19 2.95-0.36 4.44-0.5 2.56 2.23 5.26 4.31 7.87 6.51 0.44-12.72 0.73-25.46 1.31-38.17 16.56-9.9199 33.22-19.69 49.78-29.62m1.5899 1.55c-16.02 9.48-31.95 19.14-48.08 28.43 5.6899 3.9 12.13 6.53 18.16 9.85 39.96 20.67 79.79 41.6 119.84 62.09 13.43-9 26.58-18.42 40.13-27.25-5.97-3.78-12.24-7.06-18.36-10.59-36.31-20.61-72.68-41.12-108.95-61.79-0.8799-0.31-1.8198-1.4201-2.7399-0.7401m-49.55 30.49c-0.51 21.26-1.42 42.52-1.98 63.78 36.82 21.28 73.44 42.9 110.19 64.3 6.97 3.87 13.6 8.37 20.79 11.84 3.04-22.72 6.31-45.41 9.27-68.14-46.12-23.88-92.2-47.83-138.27-71.78m-100.63 41.26c11.25 9.45 22.62 18.74 33.92 28.13 20.85-2.54 41.76-4.55 62.6-7.1 0.34-8.11 0.82-16.23 0.71-24.34-2.8199-2.2-5.52-4.55-8.3-6.78-29.62 3.5801-59.34 6.3801-88.93 10.09m-1.5999 1.07c-0.19 29.88-0.03 59.76-0.08 89.64 11.39 9.42 22.73 18.9 34.19 28.25 0.08-29.81 0.02-59.62 0.03-89.43-11.3-9.59-22.91-18.79-34.14-28.46m252.99 22.45c-3.35 2.6-7.44 4.4-10.32 7.49-3.22 22.18-6.18 44.41-9.17 66.62 12.85-12.25 25.27-24.96 38.11-37.22 3.98-18.92 7.15-38.04 10.75-57.05-9.74 6.8-19.59 13.42-29.37 20.16m-217.02 6.45c-0.12 30.06-0.02 60.13-0.05 90.19 28.97-3.4 57.98-6.45 86.97-9.69 1.1-0.38 3.6201 0.06 3.22-1.89 0.04-22.36 0.02-44.72 0-67.08 0.3-1.55-1.44-2.12-2.37-2.87-8.88-5.18-17.81-10.29-26.59-15.62-20.35 2.64-40.8 4.57-61.18 6.96z" fill="#0D0800"/>
 <path d="m896.87 556.47c0.92-0.68 1.86 0.4301 2.74 0.7401 36.27 20.67 72.64 41.18 108.95 61.79 6.12 3.53 12.39 6.81 18.36 10.59-13.55 8.83-26.7 18.25-40.13 27.25-40.05-20.49-79.88-41.42-119.84-62.09-6.03-3.32-12.47-5.95-18.16-9.85 16.13-9.2901 32.06-18.95 48.08-28.43z" fill="#E2DFEF"/>
 <path d="m847.32 586.96c46.07 23.95 92.15 47.9 138.27 71.78-2.96 22.73-6.23 45.42-9.27 68.14-7.19-3.47-13.82-7.97-20.79-11.84-36.75-21.4-73.37-43.02-110.19-64.3 0.5601-21.26 1.47-42.52 1.98-63.78z" fill="#AF62A4"/>
 <path d="m746.69 628.22c29.59-3.71 59.31-6.5099 88.93-10.09 2.78 2.23 5.48 4.58 8.3 6.78 0.11 8.11-0.37 16.23-0.71 24.34-20.84 2.55-41.75 4.56-62.6 7.1-11.3-9.3899-22.67-18.68-33.92-28.13z" fill="#F39800"/>
 <path d="m745.09 629.29c11.23 9.67 22.84 18.87 34.14 28.46-0.0099 29.81 0.05 59.62-0.03 89.43-11.46-9.35-22.8-18.83-34.19-28.25 0.0499-29.88-0.11-59.76 0.08-89.64z" fill="#E8F0C4"/>
 <path d="m998.08 651.74c9.78-6.74 19.63-13.36 29.37-20.16-3.6 19.01-6.77 38.13-10.75 57.05-12.84 12.26-25.26 24.97-38.11 37.22 2.99-22.21 5.95-44.44 9.17-66.62 2.88-3.0899 6.9699-4.8899 10.32-7.49z" fill="#D3EDF8"/>
 <path d="m781.06 658.19c20.38-2.39 40.83-4.32 61.18-6.96 8.78 5.33 17.71 10.44 26.59 15.62 0.93 0.75 2.67 1.32 2.37 2.87 0.02 22.36 0.04 44.72 0 67.08 0.4 1.95-2.12 1.51-3.22 1.89-28.99 3.24-58 6.29-86.97 9.69 0.0301-30.06-0.07-60.13 0.05-90.19z" fill="#49B232"/>
 <path d="m290.91 633.59c7.46-0.66 14.89-1.58 22.33-2.44 12.23 10.18 24.54 20.27 36.78 30.46 0.1 30.75-0.24 61.52 0.17 92.27-0.49-0.13-1.49-0.37-1.98-0.5 0.07-30.1 0.01-60.21 0.03-90.32-30.07 3.42-60.18 6.55-90.23 10.09 0.08 30.05-0.17 60.1 0.13 90.15l0.28 1.08c0.65 0.07 1.96 0.19 2.61 0.25-1.43 0.27-2.87 0.47-4.3 0.69-12.08-10.37-24.48-20.36-36.72-30.54 0.07-31.11-0.13-62.22 0.09-93.32 1.98-0.19 3.97-0.34 5.95-0.55 8.96-1.17 17.97-2.0699 26.97-2.97 2.96-0.63 5.99-0.72 9-0.99 9.59-1.37 19.29-1.99 28.89-3.36m-67.21 9.2599c2.33 2.78 5.36 4.81 8.1 7.15 8.62 7.1 17.16 14.31 25.85 21.33 29.6-3.67 59.31-6.52 88.92-10.1-11.2-9.41-22.63-18.53-33.72-28.06-29.73 3.06-59.4 6.7301-89.15 9.68m-1.9 1.4301c-0.05 29.83-0.04 59.67-0.01 89.51 11.49 9.39 22.74 19.08 34.39 28.27 0.15-29.78 0.05-59.55 0.05-89.32-11.45-9.52-22.88-19.07-34.43-28.46z" fill="#00080C"/>
 <path d="m223.7 642.85c29.75-2.95 59.42-6.62 89.15-9.68 11.09 9.53 22.52 18.65 33.72 28.06-29.61 3.58-59.32 6.43-88.92 10.1-8.69-7.02-17.23-14.23-25.85-21.33-2.74-2.34-5.77-4.37-8.1-7.15z" fill="#00A0DE"/>
 <path d="m221.8 644.28c11.55 9.39 22.98 18.94 34.43 28.46 0 29.77 0.1 59.54-0.05 89.32-11.65-9.19-22.9-18.88-34.39-28.27-0.03-29.84-0.04-59.68 0.01-89.51z" fill="#EC6517"/>
 <path d="m258.01 673.15c30.05-3.54 60.16-6.67 90.23-10.09-0.02 30.11 0.04 60.22-0.03 90.32-30.04 3.02-60.07 6.48-90.07 9.92-0.3-30.05-0.05-60.1-0.13-90.15z" fill="#FCE2CA"/>
 <path d="m258.14 763.3c30-3.44 60.03-6.9 90.07-9.92 0.49 0.13 1.49 0.37 1.98 0.5-0.68 1.1-1.91 1.33-3.11 1.38-28.69 3.05-57.34 6.56-86.05 9.37-0.65-0.06-1.96-0.18-2.61-0.25-0.07-0.27-0.21-0.8099-0.28-1.08z" fill="#12110F"/>
 <path d="m906.17 790.36c9.32-0.19 18.57 1.19 27.9 1.09 45.08 2.46 90.19 4.47 135.29 6.82 10.21 0.87 17.72 9.31 22.33 17.79 8.97 16.98 10.67 36.83 9.1399 55.7-1.2899 12.92-4.46 25.81-10.51 37.36-4.4301 8.07-10.44 15.98-19.14 19.68-6.38 2.81-13.45 1.23-20.13 1.12-50.36-2.49-100.72-4.99-151.07-7.43 0.44-3.68-3.48-4.91-5.45-7.24-7.3-7.53-11.4-17.55-13.98-27.57-4.92-20.48-4.03-42.34 2.32-62.42 4.22-12.67 11.11-25.39 22.97-32.35 0.08-0.6399 0.2501-1.91 0.33-2.55m-5.74 8.7301c-8.51 7.8-13.45 18.67-16.8 29.53-5.8 20.12-6.34 41.92-0.48 62.1 2.38 7.8 5.74 15.53 11.2 21.7 2.36 2.83 5.99 4.56 7.45 8.12 9.37 1.5 18.92 0.42 28.29 1.88 10.32 0.25 20.62 1.05 30.94 1.16 5.33 0.25 10.63 1 15.99 0.91 6.71-0.13 13.36 1.11 20.08 1 6.99-0.13 13.91 1.15 20.91 1 6.35-0.09 12.64 1.05 19 0.98 5.0601-0.09 10.08 0.55 15.13 0.7401-6.85-5.55-12.64-12.46-15.86-20.74-9.11-22.31-9.21-47.65-3.01-70.73 4.1899-14.62 11.63-29.69 25.52-37.25-49.95-2.49-99.92-5.1-149.87-7.29-2.5799 2.5999-5.61 4.64-8.49 6.89m154.19 5.3299c-5.0599 3.97-9.23 9.02-12.32 14.65-6.55 11.82-9.87 25.18-11.14 38.56-1.38 18.76 0.4199 38.53 9.78 55.22 4.61 8.13 12.2 15.79 22.1 16.19 10.12-0.64 18.02-8.11 23.15-16.29 7.75-12.31 11.62-26.74 13.03-41.12 1.67-18.61-0.2-38.21-9.11-54.91-3.9-7.12-9.6899-14.01-17.78-16.28-6.11-1.8499-12.75 0.24-17.71 3.98z" fill="#0E101B"/>
 <path d="m900.43 799.09c2.88-2.25 5.91-4.29 8.49-6.89 49.95 2.19 99.92 4.8 149.87 7.29-13.89 7.56-21.33 22.63-25.52 37.25-6.2 23.08-6.1 48.42 3.01 70.73 3.22 8.28 9.01 15.19 15.86 20.74-5.05-0.19-10.07-0.83-15.13-0.7401-6.36 0.07-12.65-1.0699-19-0.98-7 0.15-13.92-1.13-20.91-1-6.72 0.11-13.37-1.13-20.08-1-5.36 0.09-10.66-0.66-15.99-0.91-10.32-0.11-20.62-0.91-30.94-1.16-9.37-1.46-18.92-0.38-28.29-1.88-1.46-3.56-5.09-5.29-7.45-8.12-5.46-6.17-8.82-13.9-11.2-21.7-5.86-20.18-5.32-41.98 0.48-62.1 3.35-10.86 8.29-21.73 16.8-29.53z" fill="#2B328E"/>
 <path d="m1054.6 804.42c4.96-3.74 11.6-5.83 17.71-3.98 8.0901 2.27 13.88 9.16 17.78 16.28 8.91 16.7 10.78 36.3 9.11 54.91-1.4099 14.38-5.2799 28.81-13.03 41.12-5.13 8.18-13.03 15.65-23.15 16.29-9.9-0.4-17.49-8.06-22.1-16.19-9.3601-16.69-11.16-36.46-9.78-55.22 1.27-13.38 4.59-26.74 11.14-38.56 3.0899-5.63 7.26-10.68 12.32-14.65z" fill="#BBE2EC"/>
 <path d="m1581.3 778.28c53.29-10.09 106.62-20.02 159.92-30.09 5.0901 26.17 9.8101 52.42 14.83 78.61 0.27 1.95 1.13 4.08-0.04 5.93-8.21 18.47-16.07 37.1-24.41 55.51-53.3 9.9-106.54 20.06-159.84 29.94-5.58-28.73-10.79-57.53-16.26-86.28-0.91-2.47 0.71-4.6 1.78-6.66 7.99-15.67 15.9-31.36 24.02-46.96m138.45-23.94c-45.73 8.62-91.49 17.1-137.19 25.83-8.16 16.09-16.4 32.13-24.49 48.24 51.84-9.83 103.76-19.36 155.57-29.32 3.1801-4.57 5.08-10 7.91-14.82 5.5499-11.1 11.32-22.09 16.84-33.21-6.28 0.7099-12.43 2.2099-18.64 3.2799m20.22-1.4901c-7.95 15.07-15.48 30.37-23.32 45.5-1.61 2.6 0.0599 5.63 0.33 8.38 4.8 25.49 9.53 51 14.35 76.49 7.6001-15.7 14.05-31.95 21.26-47.84 0.74-2.12 2.39-4.18 1.7301-6.52-4.7902-25.33-9.3402-50.72-14.35-76.01m-182.6 77.75c5.25 28.38 10.63 56.73 15.92 85.11 2.59-0.36 5.1899-0.78 7.78-1.29 49.57-9.45 99.23-18.52 148.79-28.06-5.37-28.37-10.67-56.75-15.96-85.14-52.18 9.8101-104.34 19.64-156.53 29.38z"/>
 <path d="m1719.8 754.34c6.21-1.07 12.36-2.57 18.64-3.28-5.52 11.12-11.29 22.11-16.84 33.21-2.8301 4.82-4.73 10.25-7.91 14.82-51.81 9.96-103.73 19.49-155.57 29.32 8.09-16.11 16.33-32.15 24.49-48.24 45.7-8.73 91.46-17.21 137.19-25.83z" fill="#00984B"/>
 <path d="m1740 752.85c5.01 25.29 9.5601 50.68 14.35 76.01 0.6599 2.34-0.9901 4.4-1.7301 6.52-7.21 15.89-13.66 32.14-21.26 47.84-4.8199-25.49-9.5499-51-14.35-76.49-0.27-2.75-1.9399-5.78-0.33-8.38 7.84-15.13 15.37-30.43 23.32-45.5z" fill="#BBE2EC"/>
 <path d="m1557.4 830.6c52.19-9.74 104.35-19.57 156.53-29.38 5.29 28.39 10.59 56.77 15.96 85.14-49.56 9.54-99.22 18.61-148.79 28.06-2.5901 0.51-5.1901 0.93-7.78 1.29-5.2901-28.38-10.67-56.73-15.92-85.11z" fill="#69BB65"/>
 <path d="m654.65 806.49c15-7.21 31.89-9.85 48.43-9.31 12.65 0.23 25.3 2.65 37.04 7.41-0.61 0.25-1.83 0.73-2.44 0.97-12.29-4.86-25.56-6.62-38.71-6.89-17.5 0.55-35.68 3.62-50.49 13.53-7.4 4.89-13.52 12.56-13.85 21.75-1.41 5.15-0.63 10.5-0.69 15.76-0.11 32.01 0.06 64.02-0.03 96.03-0.13 16.71 0.3199 33.43-0.23 50.13-0.32-1.03-0.5-2.0699-0.53-3.11v-152.98c-0.06-5.1-0.26-10.44 1.95-15.17 3.7501-8.4099 11.6-14.03 19.55-18.12z" fill="#24241D"/>
 <path d="m648.48 812.2c14.81-9.91 32.99-12.98 50.49-13.53 13.15 0.27 26.42 2.03 38.71 6.89 9.05 3.57 18.03 8.87 23.31 17.31 3.49 5.53 4.06 12.81 1.01 18.67-4.63 9.56-14.39 15.16-23.82 19.14-16.13 6.44-33.87 7.86-51.04 6.33-14.9-1.74-30.23-5.76-42.09-15.37-5.5-4.38-9.45-10.67-10.42-17.69 0.33-9.19 6.45-16.86 13.85-21.75z" fill="#F8F8CB"/>
 <path d="m737.68 805.56c0.61-0.24 1.83-0.72 2.44-0.97 8.08 3.64 16.16 8.34 21.27 15.8 2.77 3.86 4.31 8.57 4.2 13.33-0.08 54.04 0.06 108.07-0.08 162.11-0.72 0.04-2.18 0.13-2.9 0.17-5.29 8.91-14.55 14.54-23.92 18.34-20.16 7.78-42.63 8.76-63.69 4.4601-14.83-3.26-30.28-9.66-38.98-22.78-0.59-0.03-1.76-0.11-2.34-0.15 0.55-16.7 0.1-33.42 0.23-50.13 0.09-32.01-0.08-64.02 0.03-96.03 0.06-5.26-0.72-10.61 0.69-15.76 0.97 7.02 4.92 13.31 10.42 17.69 11.86 9.61 27.19 13.63 42.09 15.37 17.17 1.53 34.91 0.11 51.04-6.33 9.43-3.98 19.19-9.58 23.82-19.14 3.05-5.86 2.48-13.14-1.01-18.67-5.2799-8.4401-14.26-13.74-23.31-17.31m-102.8 36.07c0.01 50.85-0.04 101.69 0.03 152.54 0.5699 0.0599 1.72 0.1599 2.3 0.21 6.7 11.45 19.47 17.46 31.71 21.12 21.5 5.98 44.94 5.64 66.09-1.63 9.98-3.65 20.02-9.0699 25.89-18.27 0.56-1.25 1.95-1.3199 3.09-1.64 0.04-50.77 0.01-101.55 0.02-152.32-3.17 6.23-8.17 11.35-14.06 15.05-10.74 6.8-23.29 10.22-35.81 11.82-18.07 2.1-36.82 0.56-53.86-6.07-10.3-4.0601-20.31-10.65-25.4-20.81z" fill="#1F1F11"/>
 <path d="m634.88 841.63c5.09 10.16 15.1 16.75 25.4 20.81 17.04 6.63 35.79 8.17 53.86 6.07 12.52-1.6 25.07-5.02 35.81-11.82 5.89-3.7 10.89-8.82 14.06-15.05-0.01 50.77 0.02 101.55-0.02 152.32-1.14 0.3201-2.53 0.39-3.09 1.64-5.87 9.2001-15.91 14.62-25.89 18.27-21.15 7.27-44.59 7.61-66.09 1.63-12.24-3.66-25.01-9.67-31.71-21.12-0.58-0.05-1.73-0.15-2.3-0.21-0.0699-50.85-0.0199-101.69-0.03-152.54z" fill="#EEEA38"/>
 <path d="m479.22 754.09c3.9-1.19 7.65-3.02 11.77-3.29-5.54 15.45-12.06 30.56-17.98 45.88-35.76 89.92-71.53 179.83-107.28 269.76-0.57 1.0601-0.75 2.4701-1.74 3.28-17.2 11.45-34.32 23.04-51.5 34.54-1.06 0.91-2.17-0.51-3.09-0.92-74.85-49.84-149.77-99.57-224.66-149.33-10.38-7.1-21.08-13.74-31.3-21.05 10.77-16.13 21.59-32.24 32.52-48.26 70.34-23.22 140.61-46.64 210.89-70.03 6.03-1.98 12.04-3.99 18.05-6.01 54.81-18.08 109.54-36.4 164.32-54.57m-164.82 56.99c-75.17 24.84-150.21 50.05-225.41 74.79 15.04 10.35 30.43 20.2 45.61 30.35 76.15 50.43 152.39 100.73 228.5 151.23 41.64-104.73 83.27-209.47 124.97-314.18-57.84 19.43-115.82 38.44-173.67 57.81m-258.09 121.55c53.67 35.57 107.27 71.24 160.89 106.89 31.56 20.79 62.88 42.08 94.56 62.58 16.48-10.77 32.74-21.89 49.06-32.91-91.35-60.65-182.72-121.28-273.95-182.13-10.19 15.19-20.64 30.21-30.56 45.57z"/>
 <path d="m314.4 811.08c57.85-19.37 115.83-38.38 173.67-57.81-41.7 104.71-83.33 209.45-124.97 314.18-76.11-50.5-152.35-100.8-228.5-151.23-15.18-10.15-30.57-20-45.61-30.35 75.2-24.74 150.24-49.95 225.41-74.79z" fill="#E7388E"/>
 <path d="m56.31 932.63c9.92-15.36 20.37-30.38 30.56-45.57 91.23 60.85 182.6 121.48 273.95 182.13-16.32 11.02-32.58 22.14-49.06 32.91-31.68-20.5-63-41.79-94.56-62.58-53.62-35.65-107.22-71.32-160.89-106.89z" fill="#F8CAD8"/>
 <path d="m1440.1 891.69c31.18-2.16 62.45-3.33 93.66-5.25 4.22 25.45 8.39 50.91 12.6 76.36 0.6 5.34 2.24 10.61 2.25 15.97-10.18 12.01-20.68 23.78-30.94 35.73-31.2 1.5699-62.38 3.5-93.59 4.87-4.98-29.46-9.6899-58.97-14.65-88.44-0.11-1.49-1.09-3.27 0.24-4.46 10.2-11.55 20.09-23.38 30.43-34.78m2.82 1.5201c-2.12-0.2401-3.25 1.71-4.49 3.04-8.6499 10.18-17.66 20.05-26.17 30.34 25.58-1.19 51.15-2.67 76.72-4.09 4.25-0.28 8.72 0.23 12.83-0.93 9.88-10.8 19.26-22.08 28.98-33.04-29.29 1.4599-58.59 3.0099-87.87 4.68m61.24 28.77c-0.7899 0.72-1.0299 1.6-0.72 2.64 4.76 28.81 9.54 57.61 14.26 86.42 3.53-3.01 6.21-6.8501 9.36-10.23 6.63-7.66 13.32-15.28 19.92-22.96-4.89-29.41-9.5601-58.85-14.63-88.22-9.43 10.76-18.78 21.58-28.19 32.35m-93.28 6.6001c4.9299 29.65 9.86 59.31 14.66 88.98 30.17-1.5901 60.33-3.16 90.5-4.8601-4.6-29.63-9.84-59.15-14.47-88.77-30.25 1.18-60.45 3.18-90.69 4.6501z" fill="#070707"/>
 <path d="m1443 893.21c29.28-1.67 58.58-3.22 87.87-4.68-9.72 10.96-19.1 22.24-28.98 33.04-4.11 1.16-8.58 0.65-12.83 0.93-25.57 1.42-51.14 2.9-76.72 4.09 8.51-10.29 17.52-20.16 26.17-30.34 1.2401-1.3301 2.3701-3.2801 4.4901-3.04z" fill="#0068B2"/>
 <path d="m1504.2 921.98c9.41-10.77 18.76-21.59 28.19-32.35 5.0699 29.37 9.74 58.81 14.63 88.22-6.6 7.6801-13.29 15.3-19.92 22.96-3.15 3.3799-5.83 7.22-9.36 10.23-4.72-28.81-9.5-57.61-14.26-86.42-0.3101-1.04-0.0701-1.92 0.7199-2.6401z" fill="#ED95BD"/>
 <path d="m1410.9 928.58c30.24-1.47 60.44-3.47 90.69-4.65 4.63 29.62 9.87 59.14 14.47 88.77-30.17 1.7001-60.33 3.27-90.5 4.8601-4.7999-29.67-9.7299-59.33-14.66-88.98z" fill="#E7141A"/>
 <path d="m1709.8 924.51c3.75-2.36 6.8-6.31 11.03-7.59 30.68 4.38 61.32 9.09 91.97 13.7-1.35 31.05-2.4099 62.13-3.65 93.19-12.67 9.6299-25.22 19.39-37.94 28.94-30.83-4.64-61.67-9.24-92.51-13.85 0.97-31.07 2.4-62.12 3.47-93.18 9.1499-7.1399 18.42-14.14 27.63-21.21m2.43 0.52c-8.8 6.92-17.99 13.36-26.52 20.59 29.65 4.26 59.22 9.16 88.91 13.05 11.42-9.13 23.41-17.53 34.64-26.88-29.16-4.04-58.23-8.81-87.39-12.88-3.88 0.29-6.39 4.23-9.64 6.12m63.43 35.34c-0.6799 4.0601-0.4399 8.22-0.6799 12.33-1.03 25.71-1.9 51.44-3.03 77.15 11.4-8.65 22.76-17.37 34.12-26.07 2.03-1.25 1.2001-3.97 1.5601-5.9301 1-28.21 2.1499-56.41 3.22-84.61-11.66 9.14-23.68 17.84-35.19 27.13m-91.68-13.12c-1.29 30.01-2.29 60.02-3.54 90.03 29.88 4.5399 59.77 8.95 89.65 13.44 1.4301-30.01 2.21-60.05 3.66-90.06-29.93-4.4699-59.85-8.9498-89.77-13.41z" fill="#080700"/>
 <path d="m1712.3 925.03c3.25-1.89 5.76-5.83 9.64-6.1201 29.16 4.07 58.23 8.84 87.39 12.88-11.23 9.35-23.22 17.75-34.64 26.88-29.69-3.89-59.26-8.79-88.91-13.05 8.53-7.2299 17.72-13.67 26.52-20.59z" fill="#FCCB00"/>
 <path d="m1775.7 960.37c11.51-9.29 23.53-17.99 35.19-27.13-1.0701 28.2-2.22 56.4-3.22 84.61-0.36 1.9601 0.47 4.6801-1.5601 5.9301-11.36 8.7-22.72 17.42-34.12 26.07 1.13-25.71 2-51.44 3.03-77.15 0.24-4.11 0-8.2699 0.68-12.33z" fill="#B7D200"/>
 <path d="m1684 947.25c29.92 4.46 59.84 8.94 89.77 13.41-1.4501 30.01-2.23 60.05-3.66 90.06-29.88-4.49-59.77-8.9-89.65-13.44 1.25-30.01 2.25-60.02 3.54-90.03z" fill="#EC811A"/>
 <path d="m788.05 935.08c27.01-0.04 54.01 0.03 81.02-0.03 1.3 0.1 2.8-0.24 3.99 0.5 16.09 10.96 32.15 21.96 48.27 32.87 1.11 0.7699 2.57 1.6 2.18 3.2699-0.02 53.74 0.05 107.48-0.04 161.21-29.16 0.0699-58.32-0.01-87.48 0.0399-1.45 0.0601-2.92-0.1-4.02-1.1-14.13-10.91-28.26-21.84-42.4-32.73-1.25-0.7-1.83-1.89-1.56-3.29 0.0301-53.58-0.0599-107.16 0.04-160.74m4.5401 2.0899c13.68 11.05 27.84 21.51 41.67 32.37 28.24-0.03 56.48 0.02 84.71-0.02-14.66-10.33-29.64-20.19-44.37-30.41-1.42-0.88-2.75-2.26-4.55-2.03-25.82 0.0499-51.64-0.13-77.46 0.0899m-2.5801 0.88c0.02 52.93-0.05 105.86 0.04 158.79 14.34 10.99 28.58 22.12 42.96 33.08v-142.23c-0.24-5.5499 0.48-11.22-0.34-16.67-14.15-11.08-28.45-21.98-42.66-32.97m45 33.5c0.04 53.12-0.07 106.24 0.05 159.37 17.3 0.01 34.6 0 51.91 0 11.53-0.17 23.08 0.34 34.6-0.27-0.09-52.99-0.12-105.99 0.02-158.98-28.86-0.3101-57.72-0.0601-86.58-0.12z"/>
 <path d="m792.59 937.17c25.82-0.22 51.64-0.04 77.46-0.09 1.8-0.23 3.13 1.15 4.55 2.03 14.73 10.22 29.71 20.08 44.37 30.41-28.23 0.04-56.47-0.01-84.71 0.02-13.83-10.86-27.99-21.32-41.67-32.37z" fill="#F8CAD8"/>
 <path d="m790.01 938.05c14.21 10.99 28.51 21.89 42.66 32.97 0.82 5.45 0.1 11.12 0.34 16.67v142.23c-14.38-10.96-28.62-22.09-42.96-33.08-0.0899-52.93-0.0199-105.86-0.04-158.79z" fill="#F2E9B5"/>
 <path d="m835.01 971.55c28.86 0.0599 57.72-0.1901 86.58 0.12-0.14 52.99-0.11 105.99-0.02 158.98-11.52 0.61-23.07 0.1-34.6 0.27-17.31 0-34.61 0.01-51.91 0-0.12-53.13-0.01-106.25-0.05-159.37z" fill="#591A86"/>
 <path d="m1168.6 957.36c3.71-2.64 7.1-5.76 11.13-7.92 2.6901 0.82 5.51 0.53 8.29 0.62 51.05 1.27 102.11 2.66 153.15 3.99 0.3 30.54 0.09 61.08 0.11 91.62-9.97 7.37-19.91 14.76-29.92 22.06-54-1.34-107.99-2.7-161.98-4.16-1.08-30.01-0.9399-60.06-2.02-90.06 6.87-5.6401 14.18-10.73 21.24-16.15m-16.45 15.13c12.61 0.84 25.28 0.92 37.93 1.12 12.31 0.51 24.63 0.9301 36.95 0.96 12.66 0.4701 25.33 1 38.01 1 14.35 0.54 28.71 1.0901 43.08 1.02 1.3201 0.15 2.4401-0.58 3.4501-1.34 8.4-6.42 16.87-12.74 25.37-19.01-52.56-1.57-105.15-2.93-157.72-4.13-8.9502 6.9001-18.04 13.59-27.07 20.38m158.67 6.1801c0.4399 28.59 0.74 57.18 1.3099 85.78 8.5701-6.3099 17.15-12.6 25.67-18.97 1.71-0.9399 1.33-3.08 1.4399-4.6899-0.12-27.76 0.0601-55.53-0.09-83.29-9.5398 6.92-18.98 13.99-28.33 21.17m-161.3-3.77c0.1 1.58 0.25 3.1699 0.3201 4.77 0.2899 27.31 0.9199 54.62 1.51 81.92 10.57-0.1899 21.13 0.64 31.71 0.75 42.33 1.04 84.66 2.13 126.99 3.26-0.71-28.83-0.8101-57.68-1.3101-86.51-53.07-1.4499-106.14-2.8099-159.22-4.1899z" fill="#221E00"/>
 <path d="m1152.1 972.49c9.03-6.79 18.12-13.48 27.07-20.38 52.57 1.2 105.16 2.56 157.72 4.13-8.5 6.27-16.97 12.59-25.37 19.01-1.01 0.76-2.13 1.49-3.4501 1.34-14.37 0.0701-28.73-0.48-43.08-1.02-12.68 0-25.35-0.5299-38.01-1-12.32-0.0299-24.64-0.45-36.95-0.96-12.65-0.1999-25.32-0.28-37.93-1.12z" fill="#94C036"/>
 <path d="m1310.8 978.67c9.35-7.1801 18.79-14.25 28.33-21.17 0.15 27.76-0.03 55.53 0.09 83.29-0.11 1.61 0.27 3.75-1.4399 4.6899-8.52 6.37-17.1 12.66-25.67 18.97-0.5701-28.6-0.8701-57.19-1.3101-85.78z" fill="#00984B"/>
 <path d="m1149.5 974.9c53.08 1.38 106.15 2.74 159.22 4.1899 0.5 28.83 0.6001 57.68 1.3101 86.51-42.33-1.13-84.66-2.22-126.99-3.26-10.58-0.11-21.14-0.9399-31.71-0.75-0.5901-27.3-1.2201-54.61-1.51-81.92-0.0701-1.6001-0.2201-3.1901-0.3201-4.77z" fill="#FFE800"/>
 <path d="m991.41 944.26c5.66-0.27 11.31 1.15 16.98 1.49 15.29 1.6 30.55 3.55 45.86 4.97 2.96 0.53 5.97 0.72 8.98 1 7.15 1.04 14.35 1.58 21.52 2.51-0.05 31.07 0.1801 62.15-0.11 93.21-11.74 10.42-24.24 20-36.14 30.25-21.5-1.83-42.91-4.71-64.37-6.8999-9.71-1.14-19.45-2.01-29.12-3.3501 0.01-30.59-0.02-61.18 0.01-91.77-0.29-1.7301 1.45-2.53 2.48-3.51 11.36-9.2202 22.49-18.76 33.91-27.9m0.8399 1.6199c-5.66 4.7-11.36 9.38-17.02 14.09-5.42 4.8101-11.56 8.85-16.48 14.19 22.39 2.34 44.75 4.9199 67.13 7.36 7.3101 0.5699 14.59 2.1699 21.93 1.98 3.37-2.2 6.22-5.11 9.4099-7.5699 8.01-6.78 16.31-13.23 24.16-20.19-29.69-3.4401-59.4-6.71-89.13-9.8601m58.11 38.15c-1.28 0.8199-1.8199 2.2-1.6 3.7 0.0699 29.01-0.0601 58.02 0.0699 87.03 11.51-9.1901 22.72-18.75 34.11-28.09 0.1599-29.88 0.0299-59.75 0.0699-89.63-10.89 8.9901-21.75 18.02-32.65 26.99m-93.58-8.22c-0.01 30.06-0.03 60.13 0.01 90.19 30.05 3.23 60.09 6.64 90.15 9.9399 0.1599-30.09 0.0199-60.19 0.0699-90.28-30.09-3.1399-60.14-6.7399-90.23-9.8499z" fill="#020104"/>
 <path d="m992.25 945.88c29.73 3.15 59.44 6.42 89.13 9.86-7.85 6.96-16.15 13.41-24.16 20.19-3.1899 2.46-6.0399 5.37-9.4099 7.5699-7.3401 0.1899-14.62-1.41-21.93-1.98-22.38-2.4401-44.74-5.02-67.13-7.36 4.92-5.3401 11.06-9.38 16.48-14.19 5.6601-4.7098 11.36-9.3898 17.02-14.09z" fill="#232388"/>
 <path d="m1050.4 984.03c10.9-8.97 21.76-18 32.65-26.99-0.04 29.88 0.09 59.75-0.0699 89.63-11.39 9.34-22.6 18.9-34.11 28.09-0.13-29.01 0-58.02-0.0699-87.03-0.2201-1.5001 0.3199-2.8801 1.5999-3.7z" fill="#851F83"/>
 <path d="m956.78 975.81c30.09 3.11 60.14 6.71 90.23 9.85-0.05 30.09 0.09 60.19-0.0699 90.28-30.06-3.2999-60.1-6.71-90.15-9.9399-0.0401-30.06-0.02-60.13-0.01-90.19z" fill="#C4DAEC"/>
 <path d="m548.85 1105.9c28.02-13.85 56.08-27.59 84.13-41.38 14.92 5.51 29.95 10.7 44.88 16.17 10.46 29.2 21.13 58.33 31.55 87.55-27.34 13.75-54.9 27.08-82.34 40.63-1.85 1.27-3.87 0.01-5.7-0.5699-13.56-5.0601-27.36-9.54-40.8-14.86-10.78-29.09-21.18-58.35-31.72-87.54m25.7-10.64c-7.25 3.79-14.86 6.89-21.87 11.11 13.74 4.9901 27.54 9.8601 41.29 14.84 20.02-9.78 39.96-19.74 59.99-29.51 6.69-3.59 13.87-6.28 20.28-10.37-13.71-5.01-27.5-9.8401-41.23-14.83-19.47 9.62-38.95 19.21-58.46 28.76m20.65 27.52c10.3 28.2 20.47 56.45 30.62 84.7 26.71-13.25 53.54-26.27 80.24-39.55 1.76-0.42 0.38-2.25 0.21-3.26-9.92-27.34-19.81-54.69-29.64-82.05-27.15 13.37-54.38 26.57-81.43 40.16m-43.75-14.87c10.17 28.06 20.33 56.11 30.41 84.19 13.91 5.1499 27.93 10.04 41.88 15.09-9.64-27.27-19.68-54.41-29.38-81.67-0.47-1.4099-1.0699-2.98-2.73-3.24-13.4-4.7701-26.77-9.6201-40.18-14.37z"/>
 <path d="m574.55 1095.2c19.51-9.5499 38.99-19.14 58.46-28.76 13.73 4.99 27.52 9.8201 41.23 14.83-6.41 4.09-13.59 6.78-20.28 10.37-20.03 9.77-39.97 19.73-59.99 29.51-13.75-4.98-27.55-9.85-41.29-14.84 7.01-4.22 14.62-7.32 21.87-11.11z" fill="#C60222"/>
 <path d="m595.2 1122.7c27.05-13.59 54.28-26.79 81.43-40.16 9.83 27.36 19.72 54.71 29.64 82.05 0.17 1.01 1.55 2.84-0.21 3.26-26.7 13.28-53.53 26.3-80.24 39.55-10.15-28.25-20.32-56.5-30.62-84.7z" fill="#BBE2EC"/>
 <path d="m551.45 1107.9c13.41 4.75 26.78 9.6 40.18 14.37 1.66 0.26 2.26 1.8301 2.73 3.24 9.7 27.26 19.74 54.4 29.38 81.67-13.95-5.05-27.97-9.9401-41.88-15.09-10.08-28.08-20.24-56.13-30.41-84.19z" fill="#00ACBF"/>
</svg>
